<mxfile host="app.diagrams.net" modified="2023-09-22T14:21:41.136Z" agent="Mozilla/5.0 (Windows NT 10.0; Win64; x64; rv:109.0) Gecko/20100101 Firefox/117.0" etag="bEWAgtRl5juV8gbQkIMn" version="21.8.0" type="device">
  <diagram name="DLR" id="he-MV9REyBfsV8qEo6ci">
    <mxGraphModel dx="2261" dy="729" grid="1" gridSize="10" guides="1" tooltips="1" connect="1" arrows="1" fold="1" page="1" pageScale="1" pageWidth="827" pageHeight="1169" math="0" shadow="0">
      <root>
        <mxCell id="0" />
        <mxCell id="1" parent="0" />
        <mxCell id="hwFXPhVqcDb94kStZQiy-1" value="LIBROS" style="whiteSpace=wrap;html=1;align=center;" parent="1" vertex="1">
          <mxGeometry x="250" y="220" width="100" height="40" as="geometry" />
        </mxCell>
        <mxCell id="hwFXPhVqcDb94kStZQiy-2" value="Titulo" style="ellipse;whiteSpace=wrap;html=1;align=center;" parent="1" vertex="1">
          <mxGeometry x="240" y="80" width="100" height="40" as="geometry" />
        </mxCell>
        <mxCell id="hwFXPhVqcDb94kStZQiy-3" value="Autor" style="ellipse;whiteSpace=wrap;html=1;align=center;" parent="1" vertex="1">
          <mxGeometry x="90" y="190" width="100" height="40" as="geometry" />
        </mxCell>
        <mxCell id="hwFXPhVqcDb94kStZQiy-4" value="NroLibro" style="ellipse;whiteSpace=wrap;html=1;align=center;fontStyle=4" parent="1" vertex="1">
          <mxGeometry x="140" y="130" width="100" height="40" as="geometry" />
        </mxCell>
        <mxCell id="hwFXPhVqcDb94kStZQiy-6" value="Edicion" style="ellipse;whiteSpace=wrap;html=1;align=center;" parent="1" vertex="1">
          <mxGeometry x="90" y="240" width="100" height="40" as="geometry" />
        </mxCell>
        <mxCell id="hwFXPhVqcDb94kStZQiy-7" value="Precio_Ori" style="ellipse;whiteSpace=wrap;html=1;align=center;" parent="1" vertex="1">
          <mxGeometry x="320" y="120" width="100" height="40" as="geometry" />
        </mxCell>
        <mxCell id="hwFXPhVqcDb94kStZQiy-8" value="Estado" style="ellipse;whiteSpace=wrap;html=1;align=center;" parent="1" vertex="1">
          <mxGeometry x="120" y="290" width="100" height="40" as="geometry" />
        </mxCell>
        <mxCell id="hwFXPhVqcDb94kStZQiy-9" value="Precio_Act" style="ellipse;whiteSpace=wrap;html=1;align=center;" parent="1" vertex="1">
          <mxGeometry x="190" y="330" width="100" height="40" as="geometry" />
        </mxCell>
        <mxCell id="hwFXPhVqcDb94kStZQiy-10" value="TIPOS LIBROS" style="whiteSpace=wrap;html=1;align=center;" parent="1" vertex="1">
          <mxGeometry x="570" y="210" width="100" height="40" as="geometry" />
        </mxCell>
        <mxCell id="hwFXPhVqcDb94kStZQiy-11" value="Tipo" style="ellipse;whiteSpace=wrap;html=1;align=center;fontStyle=4" parent="1" vertex="1">
          <mxGeometry x="510" y="100" width="100" height="40" as="geometry" />
        </mxCell>
        <mxCell id="hwFXPhVqcDb94kStZQiy-12" value="DescTipo" style="ellipse;whiteSpace=wrap;html=1;align=center;" parent="1" vertex="1">
          <mxGeometry x="660" y="100" width="100" height="40" as="geometry" />
        </mxCell>
        <mxCell id="hwFXPhVqcDb94kStZQiy-13" value="COPIAS" style="whiteSpace=wrap;html=1;align=center;" parent="1" vertex="1">
          <mxGeometry x="640" y="390" width="100" height="40" as="geometry" />
        </mxCell>
        <mxCell id="hwFXPhVqcDb94kStZQiy-15" value="Estado" style="ellipse;whiteSpace=wrap;html=1;align=center;" parent="1" vertex="1">
          <mxGeometry x="760" y="330" width="100" height="40" as="geometry" />
        </mxCell>
        <mxCell id="hwFXPhVqcDb94kStZQiy-16" value="NroCopia" style="ellipse;whiteSpace=wrap;html=1;align=center;fontStyle=4" parent="1" vertex="1">
          <mxGeometry x="730" y="460" width="100" height="40" as="geometry" />
        </mxCell>
        <mxCell id="hwFXPhVqcDb94kStZQiy-17" value="LECTOR" style="whiteSpace=wrap;html=1;align=center;" parent="1" vertex="1">
          <mxGeometry x="67" y="525" width="100" height="40" as="geometry" />
        </mxCell>
        <mxCell id="hwFXPhVqcDb94kStZQiy-18" value="NroLector" style="ellipse;whiteSpace=wrap;html=1;align=center;fontStyle=4" parent="1" vertex="1">
          <mxGeometry x="37" y="465" width="100" height="40" as="geometry" />
        </mxCell>
        <mxCell id="hwFXPhVqcDb94kStZQiy-19" value="Nombre" style="ellipse;whiteSpace=wrap;html=1;align=center;" parent="1" vertex="1">
          <mxGeometry x="233" y="565" width="100" height="40" as="geometry" />
        </mxCell>
        <mxCell id="hwFXPhVqcDb94kStZQiy-20" value="Direccion" style="ellipse;whiteSpace=wrap;html=1;align=center;" parent="1" vertex="1">
          <mxGeometry x="-53" y="515" width="100" height="40" as="geometry" />
        </mxCell>
        <mxCell id="hwFXPhVqcDb94kStZQiy-21" value="Estado" style="ellipse;whiteSpace=wrap;html=1;align=center;" parent="1" vertex="1">
          <mxGeometry x="173" y="620" width="100" height="40" as="geometry" />
        </mxCell>
        <mxCell id="hwFXPhVqcDb94kStZQiy-22" value="Trabajo" style="ellipse;whiteSpace=wrap;html=1;align=center;" parent="1" vertex="1">
          <mxGeometry x="-23" y="575" width="100" height="40" as="geometry" />
        </mxCell>
        <mxCell id="hwFXPhVqcDb94kStZQiy-23" value="Salario" style="ellipse;whiteSpace=wrap;html=1;align=center;" parent="1" vertex="1">
          <mxGeometry x="53" y="620" width="100" height="40" as="geometry" />
        </mxCell>
        <mxCell id="hwFXPhVqcDb94kStZQiy-24" value="PRESTAMOS" style="whiteSpace=wrap;html=1;align=center;" parent="1" vertex="1">
          <mxGeometry x="370" y="420" width="100" height="40" as="geometry" />
        </mxCell>
        <mxCell id="hwFXPhVqcDb94kStZQiy-28" value="FPrest" style="ellipse;whiteSpace=wrap;html=1;align=center;fontStyle=0" parent="1" vertex="1">
          <mxGeometry x="300" y="500" width="100" height="40" as="geometry" />
        </mxCell>
        <mxCell id="hwFXPhVqcDb94kStZQiy-29" value="FDevol" style="ellipse;whiteSpace=wrap;html=1;align=center;fontStyle=0" parent="1" vertex="1">
          <mxGeometry x="500" y="485" width="100" height="40" as="geometry" />
        </mxCell>
        <mxCell id="hwFXPhVqcDb94kStZQiy-30" value="" style="endArrow=none;html=1;rounded=0;" parent="1" source="hwFXPhVqcDb94kStZQiy-1" target="hwFXPhVqcDb94kStZQiy-7" edge="1">
          <mxGeometry width="50" height="50" relative="1" as="geometry">
            <mxPoint x="250" y="205" as="sourcePoint" />
            <mxPoint x="300" y="155" as="targetPoint" />
          </mxGeometry>
        </mxCell>
        <mxCell id="hwFXPhVqcDb94kStZQiy-31" value="" style="endArrow=none;html=1;rounded=0;" parent="1" source="hwFXPhVqcDb94kStZQiy-2" target="hwFXPhVqcDb94kStZQiy-1" edge="1">
          <mxGeometry width="50" height="50" relative="1" as="geometry">
            <mxPoint x="240" y="200" as="sourcePoint" />
            <mxPoint x="310.71067811865476" y="150" as="targetPoint" />
          </mxGeometry>
        </mxCell>
        <mxCell id="hwFXPhVqcDb94kStZQiy-32" value="" style="endArrow=none;html=1;rounded=0;" parent="1" source="hwFXPhVqcDb94kStZQiy-1" target="hwFXPhVqcDb94kStZQiy-4" edge="1">
          <mxGeometry width="50" height="50" relative="1" as="geometry">
            <mxPoint x="230" y="220" as="sourcePoint" />
            <mxPoint x="280" y="170" as="targetPoint" />
          </mxGeometry>
        </mxCell>
        <mxCell id="hwFXPhVqcDb94kStZQiy-33" value="" style="endArrow=none;html=1;rounded=0;" parent="1" source="hwFXPhVqcDb94kStZQiy-1" target="hwFXPhVqcDb94kStZQiy-3" edge="1">
          <mxGeometry width="50" height="50" relative="1" as="geometry">
            <mxPoint x="210" y="270" as="sourcePoint" />
            <mxPoint x="260" y="220" as="targetPoint" />
          </mxGeometry>
        </mxCell>
        <mxCell id="hwFXPhVqcDb94kStZQiy-34" value="" style="endArrow=none;html=1;rounded=0;" parent="1" source="hwFXPhVqcDb94kStZQiy-6" target="hwFXPhVqcDb94kStZQiy-1" edge="1">
          <mxGeometry width="50" height="50" relative="1" as="geometry">
            <mxPoint x="200" y="310" as="sourcePoint" />
            <mxPoint x="250" y="260" as="targetPoint" />
          </mxGeometry>
        </mxCell>
        <mxCell id="hwFXPhVqcDb94kStZQiy-35" value="" style="endArrow=none;html=1;rounded=0;" parent="1" source="hwFXPhVqcDb94kStZQiy-8" target="hwFXPhVqcDb94kStZQiy-1" edge="1">
          <mxGeometry width="50" height="50" relative="1" as="geometry">
            <mxPoint x="230" y="330" as="sourcePoint" />
            <mxPoint x="280" y="280" as="targetPoint" />
          </mxGeometry>
        </mxCell>
        <mxCell id="hwFXPhVqcDb94kStZQiy-36" value="" style="endArrow=none;html=1;rounded=0;" parent="1" source="hwFXPhVqcDb94kStZQiy-9" target="hwFXPhVqcDb94kStZQiy-1" edge="1">
          <mxGeometry width="50" height="50" relative="1" as="geometry">
            <mxPoint x="280" y="340" as="sourcePoint" />
            <mxPoint x="330" y="290" as="targetPoint" />
          </mxGeometry>
        </mxCell>
        <mxCell id="hwFXPhVqcDb94kStZQiy-37" value="" style="endArrow=none;html=1;rounded=0;" parent="1" source="hwFXPhVqcDb94kStZQiy-10" target="hwFXPhVqcDb94kStZQiy-11" edge="1">
          <mxGeometry width="50" height="50" relative="1" as="geometry">
            <mxPoint x="480" y="240" as="sourcePoint" />
            <mxPoint x="530" y="190" as="targetPoint" />
          </mxGeometry>
        </mxCell>
        <mxCell id="hwFXPhVqcDb94kStZQiy-38" value="" style="endArrow=none;html=1;rounded=0;" parent="1" source="hwFXPhVqcDb94kStZQiy-10" target="hwFXPhVqcDb94kStZQiy-12" edge="1">
          <mxGeometry width="50" height="50" relative="1" as="geometry">
            <mxPoint x="620" y="200" as="sourcePoint" />
            <mxPoint x="670" y="150" as="targetPoint" />
          </mxGeometry>
        </mxCell>
        <mxCell id="hwFXPhVqcDb94kStZQiy-39" value="" style="endArrow=none;html=1;rounded=0;" parent="1" source="hwFXPhVqcDb94kStZQiy-13" target="hwFXPhVqcDb94kStZQiy-15" edge="1">
          <mxGeometry width="50" height="50" relative="1" as="geometry">
            <mxPoint x="510" y="490" as="sourcePoint" />
            <mxPoint x="560" y="440" as="targetPoint" />
          </mxGeometry>
        </mxCell>
        <mxCell id="hwFXPhVqcDb94kStZQiy-40" value="" style="endArrow=none;html=1;rounded=0;" parent="1" source="hwFXPhVqcDb94kStZQiy-13" target="hwFXPhVqcDb94kStZQiy-16" edge="1">
          <mxGeometry width="50" height="50" relative="1" as="geometry">
            <mxPoint x="600" y="560" as="sourcePoint" />
            <mxPoint x="650" y="510" as="targetPoint" />
          </mxGeometry>
        </mxCell>
        <mxCell id="hwFXPhVqcDb94kStZQiy-41" value="" style="endArrow=none;html=1;rounded=0;" parent="1" source="hwFXPhVqcDb94kStZQiy-18" target="hwFXPhVqcDb94kStZQiy-17" edge="1">
          <mxGeometry width="50" height="50" relative="1" as="geometry">
            <mxPoint x="265" y="480" as="sourcePoint" />
            <mxPoint x="315" y="430" as="targetPoint" />
          </mxGeometry>
        </mxCell>
        <mxCell id="hwFXPhVqcDb94kStZQiy-42" value="" style="endArrow=none;html=1;rounded=0;" parent="1" source="hwFXPhVqcDb94kStZQiy-17" target="hwFXPhVqcDb94kStZQiy-19" edge="1">
          <mxGeometry width="50" height="50" relative="1" as="geometry">
            <mxPoint x="290" y="500" as="sourcePoint" />
            <mxPoint x="340" y="450" as="targetPoint" />
          </mxGeometry>
        </mxCell>
        <mxCell id="hwFXPhVqcDb94kStZQiy-43" value="" style="endArrow=none;html=1;rounded=0;" parent="1" source="hwFXPhVqcDb94kStZQiy-20" target="hwFXPhVqcDb94kStZQiy-17" edge="1">
          <mxGeometry width="50" height="50" relative="1" as="geometry">
            <mxPoint x="40" y="600" as="sourcePoint" />
            <mxPoint x="90" y="550" as="targetPoint" />
          </mxGeometry>
        </mxCell>
        <mxCell id="hwFXPhVqcDb94kStZQiy-44" value="" style="endArrow=none;html=1;rounded=0;" parent="1" source="hwFXPhVqcDb94kStZQiy-22" target="hwFXPhVqcDb94kStZQiy-17" edge="1">
          <mxGeometry width="50" height="50" relative="1" as="geometry">
            <mxPoint x="70" y="680" as="sourcePoint" />
            <mxPoint x="120" y="630" as="targetPoint" />
          </mxGeometry>
        </mxCell>
        <mxCell id="hwFXPhVqcDb94kStZQiy-45" value="" style="endArrow=none;html=1;rounded=0;" parent="1" source="hwFXPhVqcDb94kStZQiy-23" target="hwFXPhVqcDb94kStZQiy-17" edge="1">
          <mxGeometry width="50" height="50" relative="1" as="geometry">
            <mxPoint x="350" y="590" as="sourcePoint" />
            <mxPoint x="400" y="540" as="targetPoint" />
          </mxGeometry>
        </mxCell>
        <mxCell id="hwFXPhVqcDb94kStZQiy-46" value="" style="endArrow=none;html=1;rounded=0;" parent="1" source="hwFXPhVqcDb94kStZQiy-21" target="hwFXPhVqcDb94kStZQiy-17" edge="1">
          <mxGeometry width="50" height="50" relative="1" as="geometry">
            <mxPoint x="330" y="620" as="sourcePoint" />
            <mxPoint x="380" y="570" as="targetPoint" />
          </mxGeometry>
        </mxCell>
        <mxCell id="hwFXPhVqcDb94kStZQiy-47" value="tiene" style="shape=rhombus;perimeter=rhombusPerimeter;whiteSpace=wrap;html=1;align=center;" parent="1" vertex="1">
          <mxGeometry x="240" y="455" width="60" height="35" as="geometry" />
        </mxCell>
        <mxCell id="hwFXPhVqcDb94kStZQiy-49" value="M" style="endArrow=none;html=1;rounded=0;" parent="1" source="hwFXPhVqcDb94kStZQiy-47" target="hwFXPhVqcDb94kStZQiy-24" edge="1">
          <mxGeometry width="50" height="50" relative="1" as="geometry">
            <mxPoint x="230" y="460" as="sourcePoint" />
            <mxPoint x="280" y="410" as="targetPoint" />
          </mxGeometry>
        </mxCell>
        <mxCell id="hwFXPhVqcDb94kStZQiy-50" value="1" style="endArrow=none;html=1;rounded=0;" parent="1" source="hwFXPhVqcDb94kStZQiy-18" target="hwFXPhVqcDb94kStZQiy-47" edge="1">
          <mxGeometry width="50" height="50" relative="1" as="geometry">
            <mxPoint x="130" y="490" as="sourcePoint" />
            <mxPoint x="180" y="440" as="targetPoint" />
          </mxGeometry>
        </mxCell>
        <mxCell id="hwFXPhVqcDb94kStZQiy-51" value="M" style="endArrow=none;html=1;rounded=0;" parent="1" source="hwFXPhVqcDb94kStZQiy-52" target="hwFXPhVqcDb94kStZQiy-24" edge="1">
          <mxGeometry width="50" height="50" relative="1" as="geometry">
            <mxPoint x="310" y="390" as="sourcePoint" />
            <mxPoint x="360" y="340" as="targetPoint" />
          </mxGeometry>
        </mxCell>
        <mxCell id="hwFXPhVqcDb94kStZQiy-52" value="tiene" style="shape=rhombus;perimeter=rhombusPerimeter;whiteSpace=wrap;html=1;align=center;" parent="1" vertex="1">
          <mxGeometry x="360" y="305" width="60" height="35" as="geometry" />
        </mxCell>
        <mxCell id="hwFXPhVqcDb94kStZQiy-53" value="1" style="endArrow=none;html=1;rounded=0;" parent="1" source="hwFXPhVqcDb94kStZQiy-1" target="hwFXPhVqcDb94kStZQiy-52" edge="1">
          <mxGeometry width="50" height="50" relative="1" as="geometry">
            <mxPoint x="380" y="300" as="sourcePoint" />
            <mxPoint x="430" y="250" as="targetPoint" />
          </mxGeometry>
        </mxCell>
        <mxCell id="hwFXPhVqcDb94kStZQiy-54" value="tiene" style="shape=rhombus;perimeter=rhombusPerimeter;whiteSpace=wrap;html=1;align=center;" parent="1" vertex="1">
          <mxGeometry x="520" y="395" width="60" height="35" as="geometry" />
        </mxCell>
        <mxCell id="hwFXPhVqcDb94kStZQiy-56" value="tiene" style="shape=rhombus;perimeter=rhombusPerimeter;whiteSpace=wrap;html=1;align=center;" parent="1" vertex="1">
          <mxGeometry x="520" y="305" width="60" height="35" as="geometry" />
        </mxCell>
        <mxCell id="hwFXPhVqcDb94kStZQiy-57" value="M" style="endArrow=none;html=1;rounded=0;" parent="1" source="hwFXPhVqcDb94kStZQiy-56" target="hwFXPhVqcDb94kStZQiy-13" edge="1">
          <mxGeometry width="50" height="50" relative="1" as="geometry">
            <mxPoint x="600" y="400" as="sourcePoint" />
            <mxPoint x="650" y="350" as="targetPoint" />
          </mxGeometry>
        </mxCell>
        <mxCell id="hwFXPhVqcDb94kStZQiy-58" value="1" style="endArrow=none;html=1;rounded=0;" parent="1" source="hwFXPhVqcDb94kStZQiy-1" target="hwFXPhVqcDb94kStZQiy-56" edge="1">
          <mxGeometry width="50" height="50" relative="1" as="geometry">
            <mxPoint x="420" y="310" as="sourcePoint" />
            <mxPoint x="470" y="260" as="targetPoint" />
          </mxGeometry>
        </mxCell>
        <mxCell id="hwFXPhVqcDb94kStZQiy-59" value="1" style="endArrow=none;html=1;rounded=0;" parent="1" source="hwFXPhVqcDb94kStZQiy-54" target="hwFXPhVqcDb94kStZQiy-13" edge="1">
          <mxGeometry width="50" height="50" relative="1" as="geometry">
            <mxPoint x="580" y="450" as="sourcePoint" />
            <mxPoint x="630" y="400" as="targetPoint" />
          </mxGeometry>
        </mxCell>
        <mxCell id="hwFXPhVqcDb94kStZQiy-60" value="M" style="endArrow=none;html=1;rounded=0;" parent="1" source="hwFXPhVqcDb94kStZQiy-24" target="hwFXPhVqcDb94kStZQiy-54" edge="1">
          <mxGeometry width="50" height="50" relative="1" as="geometry">
            <mxPoint x="500" y="510" as="sourcePoint" />
            <mxPoint x="550" y="460" as="targetPoint" />
          </mxGeometry>
        </mxCell>
        <mxCell id="hwFXPhVqcDb94kStZQiy-61" value="" style="endArrow=none;html=1;rounded=0;" parent="1" source="hwFXPhVqcDb94kStZQiy-28" target="hwFXPhVqcDb94kStZQiy-24" edge="1">
          <mxGeometry width="50" height="50" relative="1" as="geometry">
            <mxPoint x="320" y="520" as="sourcePoint" />
            <mxPoint x="370" y="470" as="targetPoint" />
          </mxGeometry>
        </mxCell>
        <mxCell id="hwFXPhVqcDb94kStZQiy-62" value="" style="endArrow=none;html=1;rounded=0;" parent="1" source="hwFXPhVqcDb94kStZQiy-29" target="hwFXPhVqcDb94kStZQiy-24" edge="1">
          <mxGeometry width="50" height="50" relative="1" as="geometry">
            <mxPoint x="470" y="650" as="sourcePoint" />
            <mxPoint x="520" y="600" as="targetPoint" />
          </mxGeometry>
        </mxCell>
        <mxCell id="hwFXPhVqcDb94kStZQiy-63" value="M" style="endArrow=none;html=1;rounded=0;" parent="1" source="hwFXPhVqcDb94kStZQiy-64" target="hwFXPhVqcDb94kStZQiy-10" edge="1">
          <mxGeometry width="50" height="50" relative="1" as="geometry">
            <mxPoint x="470" y="260" as="sourcePoint" />
            <mxPoint x="520" y="210" as="targetPoint" />
          </mxGeometry>
        </mxCell>
        <mxCell id="hwFXPhVqcDb94kStZQiy-64" value="tiene" style="shape=rhombus;perimeter=rhombusPerimeter;whiteSpace=wrap;html=1;align=center;" parent="1" vertex="1">
          <mxGeometry x="440" y="185" width="60" height="35" as="geometry" />
        </mxCell>
        <mxCell id="hwFXPhVqcDb94kStZQiy-66" value="1" style="endArrow=none;html=1;rounded=0;" parent="1" source="hwFXPhVqcDb94kStZQiy-1" target="hwFXPhVqcDb94kStZQiy-64" edge="1">
          <mxGeometry width="50" height="50" relative="1" as="geometry">
            <mxPoint x="430" y="260" as="sourcePoint" />
            <mxPoint x="480" y="210" as="targetPoint" />
          </mxGeometry>
        </mxCell>
      </root>
    </mxGraphModel>
  </diagram>
</mxfile>
